<?xml version="1.0" encoding="UTF-8"?><svg id="a" xmlns="http://www.w3.org/2000/svg" viewBox="0 0 32 32"><defs><style>.b{fill:#5a606d;stroke-width:0px;}</style></defs><path class="b" d="m25.5939.0103H6.4061C2.8751.0103.0103,2.875.0103,6.4061v12.7918c0,3.5311,2.8649,6.396,6.3959,6.396h2.5583c.9461,0,1.8522.4131,2.4651,1.1459l4.1973,5.0634c.12.12.2399.1866.3731.1866.1466,0,.2665-.0666.3864-.1866l4.1973-5.0634c.613-.7328,1.5057-1.1459,2.4651-1.1459h2.5451c3.531,0,6.3959-2.8649,6.3959-6.396V6.4061C31.9897,2.875,29.1249.0103,25.5939.0103Zm-7.9683,19.6807c0,.12-.0533.2132-.1599.2932-.0932.0799-.2265.1199-.3731.1199h-2.0787c-.1333,0-.2532-.0399-.3598-.1199-.0933-.0799-.1466-.1732-.1466-.2932v-1.4924c0-.1199.0533-.2265.1466-.3064.1066-.0799.2265-.12.3598-.12h2.0787c.1466,0,.2798.04.3731.12.1066.0799.1599.1866.1599.3064v1.4924Zm3.3445-7.4086c-.2132.3465-.4797.6662-.7861.9594-.3198.2931-.6396.573-.9594.8528-.3331.2798-.6262.573-.8661.8527-.2532.2798-.4264.5863-.5063.9062-.0267.1065-.0534.2132-.0666.3064-.0133.0933-.0267.1866-.04.2798-.0533.1466-.12.2532-.2132.3199-.0799.0799-.1999.1199-.3598.1199h-2.092c-.1066,0-.2132-.0399-.2931-.1066-.0933-.0533-.1333-.1332-.1333-.2398v-.5596c.0534-.4397.2132-.8395.4664-1.1859.2398-.3465.5329-.6796.8661-.9727.3331-.2798.6662-.5596.9994-.8261s.6263-.5197.8528-.7862c.2398-.2532.3731-.5196.4264-.7995.0399-.3331-.04-.613-.2532-.8395-.1999-.2265-.4797-.3997-.8261-.533-.3465-.1199-.7196-.1731-1.106-.1731-.6662,0-1.2125.1332-1.6389.3997-.4264.2532-.7196.6796-.8661,1.2659-.0533.1332-.1199.2398-.2132.3064-.1066.0533-.2398.0933-.4131.0933h-1.8122c-.1199,0-.2398-.04-.3331-.12-.0932-.0666-.1332-.1732-.1332-.2931.0133-.4664.1466-.9061.3997-1.3325.2398-.4264.5996-.8129,1.0793-1.1593.4797-.3465,1.0527-.6263,1.7455-.8261.6796-.1999,1.4524-.2932,2.3452-.2932.9594,0,1.7722.0933,2.4385.2932.6529.1998,1.1859.4663,1.5723.7861s.6662.6662.8395,1.0394c.1732.3731.2532.7328.2398,1.0926-.0267.4397-.1466.8262-.3598,1.1726Z"/></svg>