<?xml version="1.0" encoding="UTF-8"?><svg id="a" xmlns="http://www.w3.org/2000/svg" viewBox="0 0 32 32"><defs><style>.b{fill:#adb5bd;}.b,.c,.d{stroke-width:0px;}.c{fill:none;}.d{fill:#5a606d;}</style></defs><path class="b" d="m22.7358,8.8083v.4779h-2.8675v-.4779c0-.2048-.0342-.3869-.1024-.569h2.401c.3187,0,.569.2504.569.569Z"/><path class="b" d="m18.7304,8.8083v.4779h-3.2545v-.4779c0-.3186.239-.569.569-.569h2.1166c.33,0,.569.2504.569.569Z"/><path class="d" d="m25.5024,10.9931v12.688c0,.33-.2389.569-.569.569H7.0666c-.33,0-.569-.239-.569-.569v-15.3621c0-.33.2389-.569.569-.569h6.1107c.2503,0,.4551.1479.5462.421.0228.0455.0228.0911.0228.1479v2.1051h11.1872c.2504,0,.4666.1479.5463.421.0227.0456.0227.0911.0227.1479Z"/><rect class="c" width="32" height="32"/></svg>