<?xml version="1.0" encoding="UTF-8"?><svg id="a" xmlns="http://www.w3.org/2000/svg" viewBox="0 0 32 32"><defs><style>.b{fill:#5a606d;stroke-width:0px;}</style></defs><path class="b" d="m25.7333,0H6.2667C2.8133,0,0,2.8133,0,6.2667v19.4666C0,29.1867,2.8133,32,6.2667,32h19.4666c3.4534,0,6.2667-2.8133,6.2667-6.2667V6.2667C32,2.8133,29.1867,0,25.7333,0Zm-8.0133,22.6c0,.92-.7467,1.6667-1.6667,1.6667-.9333,0-1.6667-.7467-1.6667-1.6667v-7.4801c0-.92.7334-1.6667,1.6667-1.6667.92,0,1.6667.7467,1.6667,1.6667v7.4801Zm-.4933-12.0267c-.32.32-.7333.4933-1.1733.4933-.2266,0-.4399-.04-.64-.1333-.2-.08-.3866-.2-.5466-.36-.16-.1466-.28-.3333-.36-.5334-.08-.2-.12-.4267-.12-.64,0-.44.1733-.8667.4801-1.1733.08-.08.16-.1466.2533-.2133.0933-.0534.1866-.1067.2933-.1467.0933-.0533.2-.08.3066-.1066.5467-.0933,1.12.08,1.5067.4666.08.0667.1467.16.2.2533.0667.08.12.1867.16.28.04.1066.08.2133.0933.32.0267.1067.04.2133.04.32,0,.44-.1733.8667-.4933,1.1733Z"/></svg>