<svg id="menu_a" xmlns="http://www.w3.org/2000/svg" width="32" height="32" viewBox="0 0 32 32">
  <path id="Path_1043" data-name="Path 1043" d="M7.5,10.755H24.584a.75.75,0,0,0,0-1.5H7.5a.75.75,0,1,0,0,1.5Z" fill="#5a606d"/>
  <path id="Path_1044" data-name="Path 1044" d="M24.584,13.251H7.5a.75.75,0,1,0,0,1.5H24.584a.75.75,0,0,0,0-1.5Z" fill="#5a606d"/>
  <path id="Path_1045" data-name="Path 1045" d="M16.584,17.248H7.5a.75.75,0,0,0,0,1.5h9.088a.75.75,0,0,0,0-1.5Z" fill="#5a606d"/>
  <path id="Path_1046" data-name="Path 1046" d="M12.04,21.245H7.5a.75.75,0,0,0,0,1.5H12.04a.75.75,0,1,0,0-1.5Z" fill="#adb5bd"/>
  <rect id="Rectangle_799" data-name="Rectangle 799" width="32" height="32" fill="none"/>
</svg>
